<svg version="1.2" xmlns="http://www.w3.org/2000/svg" viewBox="0 0 541 111" width="541" height="111">
	<title>kzg8t8voa9lbtgk0rm-svg</title>
	<style>
		.s0 { fill: #695b54;stroke: #695b54;stroke-width: .4 } 
		.s1 { fill: #6f615a;stroke: #6f615a;stroke-width: .4 } 
		.s2 { fill: #756760;stroke: #756760;stroke-width: .4 } 
		.s3 { fill: #7b6d65;stroke: #7b6d65;stroke-width: .4 } 
		.s4 { fill: #80736b;stroke: #80736b;stroke-width: .4 } 
		.s5 { fill: #867971;stroke: #867971;stroke-width: .4 } 
		.s6 { fill: #8c7f77;stroke: #8c7f77;stroke-width: .4 } 
		.s7 { fill: #92857c;stroke: #92857c;stroke-width: .4 } 
		.s8 { fill: #988b82;stroke: #988b82;stroke-width: .4 } 
		.s9 { fill: #9e9188;stroke: #9e9188;stroke-width: .4 } 
		.s10 { fill: #a3978e;stroke: #a3978e;stroke-width: .4 } 
		.s11 { fill: #a99d93;stroke: #a99d93;stroke-width: .4 } 
		.s12 { fill: #afa399;stroke: #afa399;stroke-width: .4 } 
	</style>
	<g id="logo-group">
		<g id="logo-center">
			<g id="slogan">
				<path id="path332043" class="s0" d="m179.6 81h-5v-3.6h14v3.6h-5.2v15.1h-3.8z"/>
				<path id="path332045" class="s0" d="m201.7 88.9v7.2h-3.6v-7.2c0-1.4-1.1-2.5-2.4-2.5-1.3 0-2.4 1-2.5 2.2v7.5h-3.6v-7.2q0-0.3 0-0.5v-10.4l3.6-1.2v6.6q1.1-0.6 2.5-0.6c1.6 0 3.1 0.6 4.2 1.8 1.2 1.2 1.8 2.7 1.8 4.3z"/>
				<path id="path332047" fill-rule="evenodd" class="s0" d="m204.4 94.2c-1.3-1.3-2-3-2-4.8 0-1.8 0.7-3.5 2-4.8 1.3-1.2 3-1.9 4.8-1.9 1.8 0 3.5 0.7 4.8 1.9 1.2 1.3 1.9 3 1.9 4.8v1.8h-9.5c0.6 0.9 1.6 1.5 2.8 1.5 0.9 0 1.7-0.3 2.4-1l2.5 2.4q-0.9 1-2.2 1.5-1.3 0.6-2.7 0.6c-1.8 0-3.5-0.7-4.8-2zm7.6-6.5c-0.6-0.9-1.7-1.6-2.8-1.6-1.2 0-2.2 0.7-2.8 1.6z"/>
				<path id="path332049" fill-rule="evenodd" class="s0" d="m233.6 91.9h-6.4l-1.5 4.2h-4l7.1-18.7h3.2l7.1 18.7h-4zm-3.2-8.8l-1.9 5.3h3.9z"/>
				<path id="path332051" class="s0" d="m239.9 78.6l3.8-1.2v18.7h-3.8z"/>
				<path id="path332053" class="s0" d="m257.9 95.5c-1.1-0.5-2.1-1.2-3-2-0.9-0.9-1.6-1.9-2-3.1q-0.8-1.7-0.8-3.7 0-1.9 0.8-3.7 0.7-1.7 2-3c0.9-0.9 1.9-1.6 3-2.1q1.8-0.7 3.8-0.7c3.1 0 6.1 1.6 7.9 4.2l-3.1 2.1c-1.1-1.6-2.9-2.5-4.8-2.5-1.6 0-3 0.6-4.1 1.6-1.1 1.1-1.7 2.6-1.7 4.1 0 1.6 0.6 3 1.7 4.1 1.1 1.1 2.5 1.7 4.1 1.7 1.9 0 3.6-1 4.7-2.5l3.1 2.1c-1.7 2.6-4.7 4.2-7.8 4.2q-2 0-3.8-0.8z"/>
				<path id="path332055" fill-rule="evenodd" class="s0" d="m273.3 95.7q-1.2-0.5-2.1-1.4-1-1-1.5-2.2c-0.3-0.9-0.5-1.8-0.5-2.7q0-1.4 0.5-2.6 0.5-1.3 1.5-2.2 0.9-1 2.1-1.5c0.9-0.3 1.8-0.5 2.7-0.5 0.9 0 1.8 0.2 2.7 0.5q1.2 0.5 2.1 1.5 1 0.9 1.5 2.2 0.5 1.2 0.5 2.6c0 0.9-0.1 1.8-0.5 2.7q-0.5 1.2-1.5 2.2-0.9 0.9-2.1 1.4c-0.9 0.4-1.8 0.6-2.7 0.6-0.9 0-1.8-0.2-2.7-0.6zm-0.5-6.3c0 1.8 1.4 3.3 3.2 3.3 1.8 0 3.2-1.5 3.2-3.3 0-1.8-1.4-3.2-3.2-3.2-1.8 0-3.2 1.4-3.2 3.2z"/>
				<path id="path332057" class="s0" d="m291.6 86.9v1.9h-7.1v-1.9z"/>
				<path id="path332059" fill-rule="evenodd" class="s0" d="m303.7 91.9h-6.4l-1.6 4.2h-3.9l7-18.7h3.3l7.1 18.7h-4zm-3.2-8.8l-1.9 5.3h3.8z"/>
				<path id="path332061" class="s0" d="m310.7 94.5c-1.1-1.1-1.7-2.6-1.7-4.2v-7.6h3.6v7.6c0 1.3 1.1 2.4 2.4 2.4 1.3 0 2.4-1.1 2.4-2.4v-7.6h3.6v7.6c0 1.6-0.6 3.1-1.8 4.2-1.1 1.1-2.6 1.8-4.2 1.8-1.6 0-3.1-0.7-4.3-1.8z"/>
				<path id="path332063" class="s0" d="m326.7 86.1v2.8c0 2.2 1.7 3.9 3.8 3.9v3.6q-1.5 0-2.9-0.6-1.4-0.6-2.4-1.6c-0.6-0.7-1.2-1.5-1.6-2.4q-0.5-1.3-0.5-2.9v-9.3l3.6-1.2v4.3h3.8v3.4z"/>
				<path id="path332065" class="s0" d="m343.6 88.9v7.2h-3.6v-7.2c0-1.4-1.1-2.5-2.5-2.5-1.2 0-2.3 1-2.4 2.2v7.5h-3.6v-7.2h-0.1q0-0.3 0.1-0.5v-10.4l3.6-1.2v6.6q1.1-0.6 2.4-0.6c1.7 0 3.2 0.6 4.3 1.8 1.2 1.2 1.8 2.7 1.8 4.3z"/>
				<path id="path332067" fill-rule="evenodd" class="s0" d="m348.9 95.7q-1.3-0.5-2.2-1.4-1-1-1.5-2.2c-0.3-0.9-0.5-1.8-0.5-2.7q0-1.4 0.5-2.6 0.5-1.3 1.5-2.2 0.9-1 2.2-1.5c0.8-0.3 1.7-0.5 2.6-0.5 0.9 0 1.8 0.2 2.7 0.5q1.2 0.5 2.2 1.5 0.9 0.9 1.4 2.2 0.6 1.2 0.6 2.6c0 0.9-0.2 1.8-0.6 2.7q-0.5 1.2-1.4 2.2-1 0.9-2.2 1.4c-0.9 0.4-1.8 0.6-2.7 0.6-0.9 0-1.8-0.2-2.6-0.6zm-0.6-6.3c0 1.8 1.4 3.3 3.2 3.3 1.8 0 3.3-1.5 3.3-3.3 0-1.8-1.5-3.2-3.3-3.2-1.8 0-3.2 1.4-3.2 3.2z"/>
				<path id="path332069" class="s0" d="m359.6 96.1v-5.9q0-1.6 0.6-3 0.7-1.4 1.7-2.5c0.7-0.7 1.6-1.3 2.5-1.7q1.4-0.6 3-0.6v3.6c-2.3 0-4.2 1.9-4.2 4.2v5.9z"/>
			</g>
			<g id="title">
				<path id="path332072" class="s0" d="m21.9 35h28.6v8.2h-17.9v13h-10.7zm28.6-16.6v8.3h-28.6v-8.3z"/>
				<path id="path332074" class="s1" d="m70.3 18.4v37.8h-10.7v-37.8z"/>
				<path id="path332076" class="s2" d="m81.7 47.4c-1.8-2.9-2.7-6.3-2.7-10.1 0-3.8 0.9-7.1 2.7-10.2q2.7-4.4 7.4-6.9 4.7-2.5 10.7-2.6c3.5 0 6.5 0.7 9.4 1.9 2.7 1.2 5 3 6.9 5.3l-6.8 6.1c-2.5-2.9-5.5-4.4-8.9-4.4-2.1 0-3.9 0.5-5.6 1.3q-2.4 1.4-3.7 3.9-1.3 2.4-1.3 5.6 0 3.2 1.3 5.7c0.9 1.6 2.1 2.9 3.7 3.7q2.5 1.4 5.6 1.4 5.1 0 8.9-4.4l6.8 6.1c-1.9 2.3-4.2 4.1-6.9 5.3-2.9 1.3-5.9 1.9-9.4 1.9q-6 0-10.7-2.5c-3.1-1.7-5.6-4-7.4-7.1z"/>
				<path id="path332078" class="s3" d="m120 26.9v-8.5h33.8v8.5h-11.5v29.3h-10.7v-29.3z"/>
				<path id="path332080" class="s4" d="m171.5 18.4v37.8h-10.7v-37.8z"/>
				<path id="path332082" fill-rule="evenodd" class="s5" d="m182.9 47.4c-1.8-3-2.7-6.3-2.7-10.1 0-3.7 0.9-7.1 2.7-10.1 1.8-3 4.3-5.3 7.5-7 3.2-1.7 6.8-2.6 10.8-2.6 4 0 7.6 0.9 10.8 2.6 3.1 1.7 5.6 4 7.5 7q2.7 4.5 2.7 10.1 0 5.7-2.7 10.1c-1.9 3-4.4 5.3-7.5 7-3.2 1.7-6.8 2.6-10.8 2.6-4 0-7.6-0.9-10.8-2.6-3.2-1.7-5.7-4-7.5-7zm27.2-4.4c0.8-1.7 1.3-3.5 1.3-5.7 0-2.1-0.5-4-1.3-5.6-1-1.6-2.2-2.9-3.7-3.9-1.6-0.8-3.3-1.3-5.2-1.3-1.9 0-3.7 0.5-5.2 1.3-1.5 1-2.8 2.3-3.6 3.9-1 1.6-1.4 3.5-1.4 5.6q0 3.2 1.4 5.7c0.8 1.6 2.1 2.9 3.6 3.7q2.3 1.4 5.2 1.4 2.8 0 5.2-1.4c1.5-0.8 2.7-2.1 3.7-3.7z"/>
				<path id="path332084" fill-rule="evenodd" class="s6" d="m256.3 38.5l10.5 13.3v4.4h-8.8l-16.7-20.1-10.5-12.7v-5h8.8l16.7 20.1zm10.5-20.1v19.5l-10.5-12.6v-6.9zm-36 18.1l10.5 13.4v6.3h-10.5z"/>
				<path id="path332086" class="s7" d="m293.1 35h28.6v8.2h-17.9v13h-10.7zm28.6-16.6v8.3h-28.6v-8.3z"/>
				<path id="path332088" class="s8" d="m330.5 39.3v-20.9h10.7v20.6q-0.1 9.1 7.1 9.1 7.2 0 7.2-9.1v-20.6h10.5v20.9c0 5.7-1.6 10-4.7 13.1-3.1 3-7.5 4.6-13.1 4.6q-8.4 0-13.1-4.6c-3.1-3.1-4.6-7.4-4.6-13.1z"/>
				<path id="path332090" class="s9" d="m373.5 52.8l3.6-7.9c1.6 1.1 3.6 2.1 5.8 2.7 2.3 0.7 4.5 1 6.6 1q6.2 0 6.2-3c0-1.1-0.6-1.9-1.8-2.4-1.2-0.6-3-1.1-5.6-1.7q-4.3-0.9-7.1-1.9-2.9-1.1-5-3.4c-1.4-1.6-2-3.7-2-6.3 0-2.3 0.6-4.4 1.9-6.2 1.2-1.8 3.1-3.4 5.6-4.4q3.7-1.7 9.2-1.7c2.5 0 4.9 0.4 7.4 0.9 2.3 0.5 4.5 1.4 6.3 2.4l-3.2 8q-5.5-2.9-10.5-2.9c-2.2 0-3.7 0.3-4.7 0.9q-1.4 1-1.4 2.5c0 1 0.5 1.7 1.7 2.2 1.1 0.6 3 1.1 5.6 1.6q4.3 1 7.1 2c1.9 0.7 3.5 1.8 4.9 3.3 1.4 1.5 2.1 3.7 2.1 6.2q0 3.4-1.9 6.2c-1.3 1.8-3.2 3.4-5.6 4.4q-3.9 1.7-9.2 1.7-4.6 0-8.9-1.2c-3-0.7-5.3-1.7-7.1-3z"/>
				<path id="path332092" class="s10" d="m424.8 18.4v37.8h-10.7v-37.8z"/>
				<path id="path332094" fill-rule="evenodd" class="s11" d="m436.2 47.4c-1.8-3-2.7-6.3-2.7-10.1 0-3.7 0.9-7.1 2.7-10.1 1.8-3 4.3-5.3 7.5-7 3.2-1.7 6.8-2.6 10.8-2.6 4 0 7.6 0.9 10.8 2.6 3.1 1.7 5.6 4 7.5 7q2.7 4.5 2.7 10.1 0 5.7-2.7 10.1c-1.9 3-4.4 5.3-7.5 7-3.2 1.7-6.8 2.6-10.8 2.6-4 0-7.6-0.9-10.8-2.6-3.2-1.7-5.7-4-7.5-7zm27.2-4.4c0.8-1.7 1.3-3.5 1.3-5.7 0-2.1-0.5-4-1.3-5.6-1-1.6-2.2-2.9-3.7-3.9-1.6-0.8-3.3-1.3-5.2-1.3-1.9 0-3.7 0.5-5.2 1.3-1.5 1-2.8 2.3-3.6 3.9-1 1.6-1.4 3.5-1.4 5.6q0 3.2 1.4 5.7c0.8 1.6 2.1 2.9 3.6 3.7q2.3 1.4 5.2 1.4 2.8 0 5.2-1.4c1.5-0.8 2.7-2.1 3.7-3.7z"/>
				<path id="path332096" fill-rule="evenodd" class="s12" d="m509.6 38.5l10.5 13.3v4.4h-8.8l-16.7-20.1-10.5-12.7v-5h8.8l16.7 20.1zm10.5-20.1v19.5l-10.5-12.6v-6.9zm-36 18.1l10.5 13.4v6.3h-10.5z"/>
			</g>
		</g>
	</g>
</svg>